<?xml version="1.0" encoding="UTF-8" standalone="no"?>
<!-- Created with Inkscape (http://www.inkscape.org/) -->
<svg xmlns:dc="http://purl.org/dc/elements/1.1/" xmlns:cc="http://creativecommons.org/ns#" xmlns:rdf="http://www.w3.org/1999/02/22-rdf-syntax-ns#" xmlns:svg="http://www.w3.org/2000/svg" xmlns="http://www.w3.org/2000/svg" version="1.1" width="376.00287" height="360.99713" id="svg8322">
  <defs id="defs8324">
    <clipPath id="clipPath5227">
      <path d="m 218,6600 0,-6600 4665,0 0,6600 -4665,0 z" id="path5229"/>
    </clipPath>
  </defs>
  <metadata id="metadata8327">
    <rdf:RDF>
      <cc:Work rdf:about="">
        <dc:format>image/svg+xml</dc:format>
        <dc:type rdf:resource="http://purl.org/dc/dcmitype/StillImage"/>
        <dc:title/>
      </cc:Work>
    </rdf:RDF>
  </metadata>
  <g transform="translate(-342.13109,-238.50609)" id="layer1">
    <path d="m 364.57275,263.37054 -5.48541,12.92806 -4.48807,12.92808 -3.9894,13.42531 -2.99204,13.4253 -2.49336,13.92255 -1.49603,13.4253 -0.99735,13.92255 0,13.92253 0.99735,13.92254 1.49603,13.42531 2.49336,13.92254 2.99204,13.4253 3.9894,13.42531 4.98674,12.92808 5.48542,12.92808 5.98408,12.43082 6.98143,11.93362 7.48012,11.9336 8.47745,10.93915 8.47747,10.4419 9.4748,10.4419 9.97348,9.44744 10.97083,8.95021 10.97084,8.45298 11.46949,7.95572 11.96819,6.96128 12.46684,5.9668 12.46686,5.46957 12.96552,4.97234 13.4642,3.97787 11.4695,3.48063 11.4695,-3.48063 13.4642,-3.97787 12.96552,-4.97234 12.96553,-5.46957 11.96817,-5.9668 11.96819,-6.96128 11.46949,-7.95572 11.46951,-8.45298 10.47216,-8.95021 9.97348,-9.44744 9.4748,-10.4419 8.97614,-10.4419 7.97878,-10.93915 7.97878,-11.9336 6.48277,-11.93362 6.48276,-12.43082 5.48541,-12.92808 4.48807,-12.92808 3.9894,-13.42531 3.49072,-13.4253 1.99468,-13.92254 1.99471,-13.42531 0.49867,-13.92254 0,-13.92253 -0.49867,-13.92255 -1.99471,-13.4253 -1.99468,-13.92255 -2.99205,-13.4253 -3.98939,-13.42531 -4.98675,-12.92808 -5.48541,-12.92806 -5.98408,-12.43084 -6.98145,-11.93361 -305.1885,0 -6.48277,11.93361 z" id="path5249" style="fill:#ffffff;fill-opacity:1;stroke:#000000;stroke-opacity:1"/>
    <path d="m 384.51971,250.9397 -6.48277,11.9336 -4.98673,11.93361 -4.98675,12.43084 -3.98939,12.43083 -3.49071,12.92808 -2.49337,12.92808 -1.9947,12.92807 -0.99735,13.4253 -0.49867,12.92808 0.49867,13.42531 0.99735,13.4253 1.9947,12.92808 2.99204,12.92807 3.49072,12.92806 3.9894,12.43085 4.98674,12.43084 5.48541,11.9336 6.48276,11.43638 6.98144,11.43637 7.48011,10.93913 8.47745,9.94468 8.47747,9.94467 9.4748,9.44744 9.97349,8.9502 10.47215,7.95575 10.97082,7.95573 10.97083,6.46404 11.96818,6.46403 11.96817,5.96681 12.46686,4.4751 11.96817,4.4751 12.96553,3.48064 12.96553,-3.48064 12.46685,-4.4751 12.46684,-4.4751 11.96818,-5.96681 11.46951,-6.46403 11.4695,-6.46404 10.47215,-7.95573 10.47215,-7.95575 9.97349,-8.9502 9.4748,-9.44744 8.97614,-9.94467 7.97878,-9.94468 7.97879,-10.93913 6.48276,-11.43637 6.48276,-11.43638 5.48541,-11.9336 4.98674,-12.43084 4.48808,-12.43085 3.49071,-12.92806 2.49337,-12.92807 1.9947,-12.92808 0.99735,-13.4253 0.99735,-13.42531 -0.49868,-12.92808 -1.49602,-13.4253 -1.49602,-12.92807 -2.99205,-12.92808 -2.99204,-12.92808 -3.98939,-12.43083 -4.98675,-12.43084 -5.4854,-11.93361 -6.48277,-11.9336 -291.22564,0" id="path5245" style="fill:#174f90;fill-opacity:1;stroke:none"/>
    <g id="text9065" style="font-size:267.85714722px;font-style:normal;font-variant:normal;font-weight:normal;font-stretch:normal;text-align:center;line-height:100%;letter-spacing:0px;word-spacing:0px;writing-mode:lr-tb;text-anchor:middle;fill:#ffffff;fill-opacity:1;stroke:none;font-family:Roadgeek 2005 Series C;-inkscape-font-specification:Roadgeek 2005 Series C">
      <path d="m 597.55927,334.1818 c -3.03587,2.85729 -5.53587,5.268 -7.5,7.23215 -1.96443,1.78585 -3.66086,3.48228 -5.08929,5.08928 -1.42871,1.60728 -2.67871,3.12513 -3.75,4.55357 -1.07156,1.25013 -2.14299,2.76799 -3.21429,4.55358 -6.07155,8.2144 -11.78583,17.85725 -17.14285,28.92857 -5.17868,10.89294 -9.55368,21.60722 -13.125,32.14286 -1.78582,5.3572 -3.30367,10.53576 -4.55357,15.53571 -1.07153,4.82147 -2.05367,9.82147 -2.94643,15 -0.71438,5.00003 -1.2501,10.26788 -1.60715,15.80357 -0.35723,5.53573 -0.62509,11.69644 -0.80357,18.48214 l -32.14286,0 c 0.17852,-6.7857 0.35709,-12.85713 0.53572,-18.21428 0.35708,-5.53569 0.80351,-10.80354 1.33928,-15.80357 0.71423,-4.99996 1.5178,-9.91067 2.41072,-14.73215 1.07136,-4.82137 2.32136,-9.99994 3.75,-15.53571 3.21421,-11.24993 6.96421,-21.9642 11.25,-32.14286 4.4642,-10.35703 9.37491,-19.99988 14.73214,-28.92857 1.42848,-2.85701 3.21419,-5.89273 5.35715,-9.10714 2.14275,-3.21415 5.17846,-7.67843 9.10714,-13.39286 l -101.51786,0 -0.53571,-31.60714 145.44643,0 0,32.14285 0,0" id="path9204" style="font-family:Roadgeek 2005 Series E;-inkscape-font-specification:Roadgeek 2005 Series E"/>
    </g>
  </g>
</svg>